<?xml version="1.0" standalone="no"?><!DOCTYPE svg PUBLIC "-//W3C//DTD SVG 1.1//EN" "http://www.w3.org/Graphics/SVG/1.1/DTD/svg11.dtd"><svg t="1605065852960" class="icon" viewBox="0 0 1024 1024" version="1.1" xmlns="http://www.w3.org/2000/svg" p-id="6092" xmlns:xlink="http://www.w3.org/1999/xlink" width="200" height="200"><defs><style type="text/css"></style></defs><path d="M899.143341 849.313445l-35.661198 0L863.482143 451.937043c0-35.661198-30.566156-66.228377-66.227354-66.228377l-81.514525 0c-10.187013 0-20.374026 10.187013-20.374026 20.37812 0 10.188037 10.187013 20.379143 20.374026 20.379143l81.514525 0c10.188037 0 20.379143 10.187013 20.379143 20.37812l0 397.373333L664.794965 844.217381 664.794965 197.210547c0-35.661198-30.566156-66.227354-66.227354-66.227354L231.761458 130.983193c-35.661198 0-66.227354 30.566156-66.227354 66.227354l0 652.102898-40.757263 0c-10.191106 0-20.37812 10.187013-20.37812 20.374026 0 10.19213 10.187013 20.379143 20.37812 20.379143l40.757263 0L664.794965 890.066615l229.256404 0c10.187013 0 20.374026-10.187013 20.374026-20.379143C914.426419 859.500459 909.334447 849.313445 899.143341 849.313445L899.143341 849.313445zM211.383338 849.313445 211.383338 197.210547c0-10.188037 10.191106-20.379143 20.37812-20.379143l371.902218 0c10.187013 0 20.374026 10.191106 20.374026 20.379143l0 652.102898L211.383338 849.313445 211.383338 849.313445zM211.383338 849.313445" p-id="6093"></path><path d="M506.866073 329.669348 328.559061 329.669348c-10.191106 0-20.37812 10.191106-20.37812 20.37812 0 10.187013 10.187013 20.379143 20.37812 20.379143l178.307012 0c10.188037 0 20.379143-10.19213 20.379143-20.379143C527.245216 339.860455 517.054109 329.669348 506.866073 329.669348L506.866073 329.669348zM506.866073 329.669348" p-id="6094"></path><path d="M506.866073 487.59824 328.559061 487.59824c-10.191106 0-20.37812 10.19213-20.37812 20.379143 0 10.191106 10.187013 20.37812 20.37812 20.37812l178.307012 0c10.188037 0 20.379143-10.187013 20.379143-20.37812C527.245216 497.79037 517.054109 487.59824 506.866073 487.59824L506.866073 487.59824zM506.866073 487.59824" p-id="6095"></path><path d="M506.866073 620.058065 328.559061 620.058065c-10.191106 0-20.37812 10.191106-20.37812 20.37812s5.095042 25.474185 20.37812 25.474185l178.307012 0c10.188037 0 20.379143-10.19213 20.379143-20.379143C527.245216 635.340119 517.054109 620.058065 506.866073 620.058065L506.866073 620.058065zM506.866073 620.058065" p-id="6096"></path></svg>