<?xml version="1.0" standalone="no"?><!DOCTYPE svg PUBLIC "-//W3C//DTD SVG 1.1//EN" "http://www.w3.org/Graphics/SVG/1.1/DTD/svg11.dtd"><svg t="1604626952265" class="icon" viewBox="0 0 1024 1024" version="1.1" xmlns="http://www.w3.org/2000/svg" p-id="2874" xmlns:xlink="http://www.w3.org/1999/xlink" width="200" height="200"><defs><style type="text/css"></style></defs><path d="M657.635 32.427h-655.36v946.631h655.36v-72.818h-582.542v-800.995h582.542z" p-id="2875" fill="#333333"></path><path d="M323.038 469.334h591.645l-155.248-275.689c-3.568-7.136 1.675-15.583 9.684-15.583h50.682c9.467 0 18.131 5.389 22.283 13.908l173.524 299.427c5.243 10.631 5.17 23.156-0.219 33.714l-172.942 294.402c-4.369 8.519-13.107 13.908-22.719 13.908h-50.608c-7.865 0-13.035-8.301-9.467-15.364l155.102-275.906h-591.717c-15.073 0-29.491-12.234-29.491-27.307v-18.205c0-15.073 14.418-27.307 29.491-27.307z" p-id="2876" fill="#333333"></path></svg>