<?xml version="1.0" standalone="no"?><!DOCTYPE svg PUBLIC "-//W3C//DTD SVG 1.1//EN" "http://www.w3.org/Graphics/SVG/1.1/DTD/svg11.dtd"><svg t="1605065832971" class="icon" viewBox="0 0 1024 1024" version="1.1" xmlns="http://www.w3.org/2000/svg" p-id="2986" xmlns:xlink="http://www.w3.org/1999/xlink" width="200" height="200"><defs><style type="text/css"></style></defs><path d="M704 953.6H320c-83.2 0-147.2-64-147.2-147.2V640c0-12.8 6.4-19.2 19.2-19.2s19.2 6.4 19.2 19.2v172.8c0 57.6 51.2 108.8 108.8 108.8h384c57.6 0 108.8-51.2 108.8-108.8V633.6c0-12.8 6.4-19.2 19.2-19.2s19.2 6.4 19.2 19.2v172.8c0 83.2-64 147.2-147.2 147.2zM806.4 576c-57.6 0-115.2-25.6-140.8-64 0 0-6.4 0-6.4-6.4-6.4 0-6.4 0-12.8 6.4-89.6 76.8-185.6 83.2-275.2 0 0 0-6.4-6.4-12.8 0 0 0-6.4 0-6.4 6.4-38.4 51.2-147.2 76.8-224 38.4-57.6-25.6-83.2-83.2-64-153.6l89.6-268.8c12.8-38.4 57.6-70.4 108.8-70.4h492.8c44.8 0 89.6 25.6 102.4 70.4l96 268.8c19.2 70.4 0 128-64 160-25.6 6.4-51.2 12.8-83.2 12.8z m-147.2-102.4h6.4c12.8 0 25.6 6.4 32 19.2 32 44.8 121.6 57.6 179.2 32 32-12.8 64-44.8 44.8-108.8l-96-262.4c-12.8-25.6-38.4-44.8-70.4-44.8H262.4c-32-6.4-64 12.8-70.4 38.4L102.4 416c-19.2 64 12.8 96 44.8 108.8 57.6 25.6 140.8 6.4 172.8-32 6.4-12.8 19.2-19.2 32-19.2s32 0 38.4 12.8c76.8 64 153.6 64 230.4 0 12.8-12.8 25.6-12.8 38.4-12.8z" fill="" p-id="2987"></path><path d="M736 243.2h-448c-12.8 0-19.2-6.4-19.2-19.2s6.4-19.2 19.2-19.2h448c12.8 0 19.2 6.4 19.2 19.2s-6.4 19.2-19.2 19.2z" fill="" p-id="2988"></path></svg>